#N canvas 176 144 855 568 10;
#X obj 56 60 route /sensel/count /sensel/contacts;
#X obj 180 129 route 0 1 2 3 4 5;
#X floatatom 56 132 5 0 0 0 - - -, f 5;
#X obj 179 209 unpack 1 1 1 1 1;
#X floatatom 179 248 5 0 0 0 - - -, f 5;
#X floatatom 219 248 5 0 0 0 - - -, f 5;
#X obj 225 298 vsl 15 128 0 127 0 0 empty empty empty 0 -9 0 10 -262144
-1 -1 0 1;
#X obj 171 350 hsl 128 15 0 127 0 0 empty empty empty -2 -8 0 10 -262144
-1 -1 0 1;
#X floatatom 258 248 5 0 0 0 - - -, f 5;
#X floatatom 297 249 5 0 0 0 - - -, f 5;
#X floatatom 336 250 5 0 0 0 - - -, f 5;
#X obj 297 273 / 50;
#X obj 308 299 vsl 15 128 0 127 0 0 empty empty empty 0 -9 0 10 -262144
-1 -1 0 1;
#X obj 329 300 vsl 15 128 0 127 0 0 empty empty empty 0 -9 0 10 -262144
-1 -1 0 1;
#X obj 336 275 / 4;
#X obj 219 273 / 2;
#X obj 56 29 netreceive 1234;
#X obj 35 60 bng 15 250 50 0 empty empty empty 17 7 0 10 -262144 -1
-1;
#X connect 0 0 2 0;
#X connect 0 1 1 0;
#X connect 1 0 3 0;
#X connect 3 0 4 0;
#X connect 3 1 5 0;
#X connect 3 2 8 0;
#X connect 3 3 9 0;
#X connect 3 4 10 0;
#X connect 5 0 15 0;
#X connect 8 0 6 0;
#X connect 9 0 11 0;
#X connect 10 0 14 0;
#X connect 11 0 12 0;
#X connect 14 0 13 0;
#X connect 15 0 7 0;
#X connect 16 0 0 0;
#X connect 16 0 17 0;
